<?xml version="1.0" standalone="no"?>
<!DOCTYPE svg PUBLIC "-//W3C//DTD SVG 20010904//EN"
 "http://www.w3.org/TR/2001/REC-SVG-20010904/DTD/svg10.dtd">
<svg version="1.0" xmlns="http://www.w3.org/2000/svg"
 width="2048.000000pt" height="2048.000000pt" viewBox="0 0 2048.000000 2048.000000"
 preserveAspectRatio="xMidYMid meet">
<metadata>
Created by potrace 1.11, written by Peter Selinger 2001-2013
</metadata>
<g transform="translate(0.000000,2048.000000) scale(0.100000,-0.100000)"
fill="#000000" stroke="none">
<path d="M4990 20473 c-249 -44 -432 -189 -520 -413 -12 -30 -24 -64 -26 -75
-19 -95 -24 -186 -24 -490 l0 -350 -1487 2 c-1588 3 -1538 4 -1748 -46 -363
-87 -699 -310 -907 -602 -124 -173 -218 -400 -244 -584 -2 -16 -7 -48 -10 -70
-16 -111 -18 -1211 -19 -8200 0 -7158 1 -7575 17 -7670 24 -135 22 -127 57
-256 32 -117 73 -234 116 -327 14 -29 25 -55 25 -57 0 -3 25 -51 57 -107 227
-412 532 -724 938 -958 48 -27 88 -50 91 -50 2 0 41 -17 86 -39 160 -74 425
-149 604 -168 88 -10 16409 -10 16489 -1 33 4 85 12 115 18 30 6 66 13 80 16
14 3 59 14 100 26 299 82 575 229 849 452 104 85 350 352 409 445 9 14 19 28
22 31 19 15 139 220 184 315 86 176 169 417 191 555 3 19 10 60 15 90 6 30 13
91 17 135 4 44 7 3464 8 7600 0 5964 -3 7537 -13 7600 -49 315 -125 529 -275
780 -314 522 -869 902 -1483 1014 -32 6 -68 13 -79 15 -18 3 -58 8 -185 23
-19 2 -571 3 -1226 3 l-1190 -1 1 318 c0 370 -5 444 -36 544 -51 164 -141 286
-279 378 -64 43 -93 57 -175 83 -81 26 -256 32 -348 13 -75 -16 -217 -72 -217
-85 0 -5 -10 -12 -22 -15 -36 -12 -161 -147 -196 -213 -26 -48 -88 -207 -81
-207 0 0 -2 -27 -6 -59 -4 -33 -8 -218 -9 -410 l-1 -351 -1605 1 c-2515 2
-7254 14 -7259 19 -2 3 -5 168 -6 367 -2 340 -7 407 -33 493 -69 224 -213 376
-417 444 -56 19 -96 24 -195 26 -69 1 -136 0 -150 -2z"/>
</g>
</svg>
